# xmcd
# 
# Track frame offsets:
#     150
#     15402
#     34621
#     49181
#     66590
#     87657
#     101591
#     122392
#     132436
#     147316
#     161573
#     174540
#     190946
# 
# Disc length: 2793
# 
# Revision: 4
# Processed by: cddbd v1.5.2PL0 Copyright (c) Steve Scherf et al.
# Submitted via: fre:ac v1.0.31
# 
DISCID=b40ae70d
DTITLE=The Reverend Horton Heat - REV
DYEAR=2014
DGENRE=Rock/Pop
TTITLE0=Victory Lap
TTITLE1=Smell of Gasoline
TTITLE2=Never Gonna Stop It
TTITLE3=Zombie Dumb
TTITLE4=Spooky Boots
TTITLE5=Schizoid
TTITLE6=Scenery Going By
TTITLE7=My Hat
TTITLE8=Let Me Teach You How to Eat
TTITLE9=Mad Mad Heart
TTITLE10=Longest Gonest Man
TTITLE11=Hardscrabble Woman
TTITLE12=Chasing Rainbows
EXTD=
EXTT0=
EXTT1=
EXTT2=
EXTT3=
EXTT4=
EXTT5=
EXTT6=
EXTT7=
EXTT8=
EXTT9=
EXTT10=
EXTT11=
EXTT12=
PLAYORDER=
